<?xml version="1.0" encoding="UTF-8" standalone="no"?>
<!-- Created with Inkscape (http://www.inkscape.org/) -->

<svg
   width="2256"
   height="1504"
   id="svg2424"
   sodipodi:version="0.32"
   inkscape:version="1.3.2 (091e20ef0f, 2023-11-25, custom)"
   version="1.0"
   sodipodi:docname="SimplyBlack.svg"
   inkscape:output_extension="org.inkscape.output.svg.inkscape"
   inkscape:export-filename="/home/thayer/archlinux-logo-contest/archer-full-detail.png"
   inkscape:export-xdpi="90"
   inkscape:export-ydpi="90"
   background-color="black"
   xmlns:inkscape="http://www.inkscape.org/namespaces/inkscape"
   xmlns:sodipodi="http://sodipodi.sourceforge.net/DTD/sodipodi-0.dtd"
   xmlns:xlink="http://www.w3.org/1999/xlink"
   xmlns="http://www.w3.org/2000/svg"
   xmlns:svg="http://www.w3.org/2000/svg"
   xmlns:rdf="http://www.w3.org/1999/02/22-rdf-syntax-ns#"
   xmlns:cc="http://creativecommons.org/ns#"
   xmlns:dc="http://purl.org/dc/elements/1.1/">
  <defs
     id="defs2426">
    <inkscape:perspective
       sodipodi:type="inkscape:persp3d"
       inkscape:vp_x="0 : 1404.7084 : 1"
       inkscape:vp_y="0 : 1000 : 0"
       inkscape:vp_z="600 : 1404.7084 : 1"
       inkscape:persp3d-origin="300 : 1371.4723 : 1"
       id="perspective59" />
    <linearGradient
       gradientUnits="userSpaceOnUse"
       id="path1082_2_"
       y2="129.3468"
       x2="112.49853"
       y1="6.1372099"
       x1="112.49854"
       gradientTransform="translate(287,-83)">
      <stop
         id="stop193"
         offset="0"
         style="stop-color:#ffffff;stop-opacity:0" />
      <stop
         id="stop195"
         offset="1"
         style="stop-color:#ffffff;stop-opacity:0.27450982;" />
      <midPointStop
         id="midPointStop197"
         style="stop-color:#FFFFFF"
         offset="0" />
      <midPointStop
         id="midPointStop199"
         style="stop-color:#FFFFFF"
         offset="0.5" />
      <midPointStop
         id="midPointStop201"
         style="stop-color:#000000"
         offset="1" />
    </linearGradient>
    <linearGradient
       inkscape:collect="always"
       xlink:href="#path1082_2_"
       id="linearGradient2544"
       gradientUnits="userSpaceOnUse"
       gradientTransform="matrix(-0.3937741,0,0,0.393752,357.51969,122.00151)"
       x1="541.33502"
       y1="104.50665"
       x2="606.91248"
       y2="303.14029" />
    <linearGradient
       id="linearGradient3388">
      <stop
         style="stop-color:#000000;stop-opacity:0;"
         offset="0"
         id="stop3390" />
      <stop
         style="stop-color:#000000;stop-opacity:0.37113401;"
         offset="1"
         id="stop3392" />
    </linearGradient>
    <linearGradient
       inkscape:collect="always"
       xlink:href="#linearGradient3388"
       id="linearGradient4416"
       gradientUnits="userSpaceOnUse"
       gradientTransform="matrix(0.749107,0,0,0.749107,-35.459862,91.44108)"
       x1="490.72305"
       y1="237.72447"
       x2="490.72305"
       y2="183.9644" />
    <linearGradient
       id="linearGradient4346">
      <stop
         style="stop-color:#26a7e8;stop-opacity:1;"
         offset="0"
         id="stop4348" />
      <stop
         style="stop-color:#3ab0ea;stop-opacity:1;"
         offset="1"
         id="stop4350" />
    </linearGradient>
  </defs>
  <sodipodi:namedview
     id="base"
     pagecolor="#000000"
     bordercolor="#666666"
     borderopacity="1.0"
     gridtolerance="10000"
     guidetolerance="10"
     objecttolerance="10"
     inkscape:pageopacity="0.0"
     inkscape:pageshadow="2"
     inkscape:zoom="0.20180853"
     inkscape:cx="408.80333"
     inkscape:cy="743.27879"
     inkscape:document-units="px"
     inkscape:current-layer="svg2424"
     inkscape:window-width="1641"
     inkscape:window-height="989"
     inkscape:window-x="0"
     inkscape:window-y="0"
     showgrid="false"
     inkscape:window-maximized="1"
     inkscape:showpageshadow="2"
     inkscape:pagecheckerboard="false"
     inkscape:deskcolor="#d1d1d1"
     inkscape:export-bgcolor="#00000000">
    <inkscape:page
       x="0"
       y="0"
       width="2256"
       height="1504"
       id="page1"
       margin="0"
       bleed="0" />
  </sodipodi:namedview>
  <metadata
     id="metadata2429">
    <rdf:RDF>
      <cc:Work
         rdf:about="">
        <dc:format>image/svg+xml</dc:format>
        <dc:type
           rdf:resource="http://purl.org/dc/dcmitype/StillImage" />
      </cc:Work>
    </rdf:RDF>
  </metadata>
  <rect
     id="background"
     width="100%"
     height="100%"
     fill="black" />
  <g
     id="g2424"
     transform="matrix(1.4170668,0,0,1.4170668,602.26055,418.0612)">
    <g
       style="fill:#ffffff;fill-opacity:1"
       transform="matrix(0.6378586,0,0,0.6378586,36.486487,2.17139)"
       id="g2809">
      <path
         style="fill:#ffffff;fill-opacity:1;fill-rule:evenodd;stroke:none;stroke-width:0.5;stroke-miterlimit:4;stroke-dasharray:none;stroke-opacity:1"
         d="m 339.96875,309.09375 c -14.47141,-0.0239 -26.4812,2.94367 -31.125,4.5625 l -4.78125,25.8125 c -0.0116,0.0951 23.79543,-6.34855 34.28125,-5.96875 17.36158,0.62381 18.95948,6.63541 18.65625,14.75 0.29595,0.47462 -4.47933,-7.33192 -19.5,-7.59375 -18.94961,-0.32687 -45.69284,6.70947 -45.65625,35.3125 -0.51086,32.17412 24.03361,41.63882 40.75,41.8125 15.02821,-0.27364 22.0777,-5.69136 25.9375,-8.59375 5.07124,-5.30236 10.87308,-10.63447 16.40625,-17.03125 -5.23567,9.51278 -9.77472,16.0898 -14.5,21.125 v 4.25 l 22.84375,-3.84375 0.15625,-62.09375 c -0.23141,-8.78839 5.04123,-42.41827 -43.46875,-42.5 z m -3.28125,54.0625 c 9.46889,0.12995 20.32788,4.79708 20.34375,16.03125 0.049,10.21821 -12.80005,15.71183 -21.15625,15.625 -8.35976,-0.0868 -19.45093,-6.56982 -19.5,-16.53125 0.16016,-8.90444 10.45953,-15.35418 20.3125,-15.125 z"
         id="path2284" />
      <path
         inkscape:export-ydpi="90"
         inkscape:export-xdpi="90"
         inkscape:export-filename="/home/thayer/linux/artwork-arch/sample-hangar2.png"
         id="path2286"
         d="m 398.50106,314.83145 -0.15505,102.82693 26.61213,-5.12724 0.0449,-58.30157 c 0.006,-8.68089 12.40554,-18.82451 27.9627,-18.66287 3.30202,-5.97408 9.5087,-21.24219 11.02088,-24.71514 -34.75649,-0.0833 -35.19897,9.98993 -41.24398,14.94517 -0.0631,-9.45285 -0.0213,-15.12741 -0.0213,-15.12741 z"
         style="fill:#ffffff;fill-opacity:1;fill-rule:evenodd;stroke:none;stroke-width:0.5;stroke-miterlimit:4;stroke-dasharray:none;stroke-opacity:1" />
      <path
         sodipodi:nodetypes="ccccccccccc"
         inkscape:export-ydpi="90"
         inkscape:export-xdpi="90"
         inkscape:export-filename="/home/thayer/linux/artwork-arch/sample-hangar2.png"
         id="path2288"
         d="m 548.2688,328.33058 c -0.25696,-0.12068 -13.87938,-15.93419 -41.26638,-16.0589 -25.65249,-0.42638 -54.42578,9.51895 -54.88631,52.5328 0.22457,37.81852 27.6402,52.59809 55.0314,52.88627 29.31292,0.30451 40.97654,-18.32947 41.67615,-18.79124 -3.49762,-3.0321 -16.59792,-16.0131 -16.59792,-16.0131 0,0 -8.18236,11.65102 -24.05802,11.79913 -15.87942,0.1512 -29.68245,-12.27325 -29.87805,-29.60905 -0.20349,-17.33595 12.68881,-26.72821 29.99725,-27.48687 14.98466,-0.003 23.6297,9.67334 23.6297,9.67334 z"
         style="fill:#ffffff;fill-opacity:1;fill-rule:evenodd;stroke:none;stroke-width:0.5;stroke-miterlimit:4;stroke-dasharray:none;stroke-opacity:1" />
      <path
         style="fill:#ffffff;fill-opacity:1;fill-rule:evenodd;stroke:none;stroke-width:0.5;stroke-miterlimit:4;stroke-dasharray:none;stroke-opacity:1"
         d="m 581.8125,278.84375 -25.125,5.90625 0.1875,133.9375 24.75,-4.46875 0.28125,-63.03125 c 0.0529,-6.60927 9.56127,-16.75916 25.4375,-16.4375 15.17973,0.15775 18.57236,10.11767 18.53125,11.375 l 0.4375,72.96875 24.40625,-4.3125 0.0937,-77.375 c 0.1607,-7.44539 -16.30833,-23.16954 -42.78125,-23.28125 -12.58087,0.0202 -19.54815,2.86825 -23.09375,4.96875 -6.06656,4.68565 -12.9998,9.17543 -19.8125,14.90625 6.29809,-8.09099 11.58551,-13.68516 16.75,-17.84375 z"
         id="path2290" />
    </g>
    <g
       transform="matrix(0.9443373,0,0.01336345,0.9443373,78.345657,-412.48879)"
       style="fill:#1793d1;fill-opacity:1;stroke:none;stroke-width:0.5;stroke-miterlimit:4;stroke-dasharray:none;stroke-opacity:1"
       id="g5326">
      <path
         inkscape:export-ydpi="90"
         inkscape:export-xdpi="90"
         inkscape:export-filename="/home/thayer/linux/artwork-arch/sample-hangar2.png"
         id="path2292"
         d="m 400.67581,629.79609 7.68167,-1.91575 -0.92851,91.20792 -7.79574,1.32426 z"
         style="fill:#1793d1;fill-opacity:1;fill-rule:evenodd;stroke:none;stroke-width:0.5;stroke-miterlimit:4;stroke-dasharray:none;stroke-opacity:1" />
      <path
         inkscape:export-ydpi="90"
         inkscape:export-xdpi="90"
         inkscape:export-filename="/home/thayer/linux/artwork-arch/sample-hangar2.png"
         id="path2294"
         d="m 421.10266,657.01757 6.75064,-2.9867 -0.86808,65.39931 -6.49779,1.33915 z m -1.26059,-23.58316 5.47167,-4.41533 4.42261,4.99952 -5.47558,4.53221 z"
         style="fill:#1793d1;fill-opacity:1;fill-rule:evenodd;stroke:none;stroke-width:0.5;stroke-miterlimit:4;stroke-dasharray:none;stroke-opacity:1" />
      <path
         inkscape:export-ydpi="90"
         inkscape:export-xdpi="90"
         inkscape:export-filename="/home/thayer/linux/artwork-arch/sample-hangar2.png"
         id="path2296"
         d="m 440.44273,655.82614 7.67755,-1.56201 -0.1573,13.6722 c -0.007,0.58717 4.4194,-15.27364 24.68502,-14.92094 19.67986,0.10952 22.68401,15.34634 22.5291,18.76237 l -0.43759,48.0783 -6.73044,1.45631 0.63316,-47.489 c 0.0974,-1.38684 -2.88144,-13.11441 -16.78906,-13.15754 -13.90509,-0.0404 -23.68364,10.10048 -23.75821,16.57937 l -0.48127,41.83477 -7.80388,2.0313 z"
         style="fill:#1793d1;fill-opacity:1;fill-rule:evenodd;stroke:none;stroke-width:0.5;stroke-miterlimit:4;stroke-dasharray:none;stroke-opacity:1" />
      <path
         inkscape:export-ydpi="90"
         inkscape:export-xdpi="90"
         inkscape:export-filename="/home/thayer/linux/artwork-arch/sample-hangar2.png"
         id="path2298"
         d="m 561.53301,720.20203 -7.6776,1.56186 0.15737,-13.67198 c 0.007,-0.58742 -4.42201,15.27361 -24.68504,14.92086 -19.67983,-0.10944 -22.68399,-15.34626 -22.52908,-18.76229 l 0.43757,-48.07861 8.15674,-1.64226 -0.54644,47.48988 c -0.0149,1.29682 1.36845,13.29979 15.27604,13.3426 13.90511,0.0405 23.76622,-8.37359 24.01453,-21.04416 l 0.43105,-37.46902 7.5978,-1.93195 z"
         style="fill:#1793d1;fill-opacity:1;fill-rule:evenodd;stroke:none;stroke-width:0.5;stroke-miterlimit:4;stroke-dasharray:none;stroke-opacity:1" />
      <path
         inkscape:export-ydpi="90"
         inkscape:export-xdpi="90"
         inkscape:export-filename="/home/thayer/linux/artwork-arch/sample-hangar2.png"
         id="path2300"
         d="m 577.45461,655.28678 -5.42715,4.20017 20.19894,26.93328 -22.39092,31.11622 5.63499,4.226 21.04365,-28.8967 20.8779,29.58159 5.32727,-4.20103 -22.37578,-31.62866 18.56963,-25.5775 -5.53193,-4.73429 -16.92109,23.66778 z"
         style="fill:#1793d1;fill-opacity:1;fill-rule:evenodd;stroke:none;stroke-width:0.5;stroke-miterlimit:4;stroke-dasharray:none;stroke-opacity:1" />
    </g>
    <g
       style="font-style:normal;font-weight:normal;font-size:16.9382px;font-family:'Liberation Sans';text-align:end;text-anchor:end;fill:#ffffff;fill-opacity:1;stroke:none"
       id="text4418">
      <path
         d="m 361.16011,293.20715 4.65634,-12.12468 h 1.72855 l 4.96236,12.12468 h -1.8278 l -1.41427,-3.67214 h -5.06987 l -1.33157,3.67214 h -1.70374 m 3.49846,-4.97889 h 4.11048 l -1.2654,-3.35786 c -0.38596,-1.02003 -0.67268,-1.85811 -0.86014,-2.51426 -0.15439,0.77745 -0.37218,1.54937 -0.65338,2.31577 l -1.33156,3.55635"
         id="path2843" />
      <path
         d="m 376.79152,290.58538 1.47217,-0.23158 c 0.0827,0.58997 0.31152,1.0421 0.68645,1.35638 0.38045,0.31428 0.90976,0.47142 1.58796,0.47142 0.68369,0 1.19096,-0.13784 1.52178,-0.41353 0.33082,-0.2812 0.49623,-0.60926 0.49624,-0.9842 -1e-5,-0.33633 -0.14612,-0.60099 -0.43834,-0.79397 -0.20401,-0.13233 -0.71128,-0.3005 -1.52179,-0.50451 -1.09172,-0.27568 -1.84986,-0.51277 -2.27441,-0.71127 -0.41905,-0.204 -0.73884,-0.48245 -0.95939,-0.83533 -0.21503,-0.35839 -0.32255,-0.75262 -0.32255,-1.18269 0,-0.39147 0.0882,-0.75262 0.26466,-1.08345 0.18195,-0.33633 0.42731,-0.61477 0.73608,-0.83533 0.23157,-0.17092 0.54586,-0.31427 0.94285,-0.43007 0.4025,-0.12129 0.83257,-0.18195 1.29021,-0.18195 0.68921,0 1.29296,0.0992 1.81126,0.29774 0.52379,0.1985 0.90975,0.46867 1.15788,0.81051 0.24811,0.33635 0.41903,0.78847 0.51277,1.35638 l -1.45562,0.19849 c -0.0662,-0.45211 -0.25915,-0.80499 -0.57894,-1.05863 -0.31429,-0.25362 -0.7609,-0.38044 -1.33983,-0.38045 -0.68371,10e-6 -1.17167,0.11304 -1.4639,0.3391 -0.29223,0.22607 -0.43834,0.49073 -0.43834,0.79397 0,0.19299 0.0607,0.36667 0.18195,0.52105 0.1213,0.1599 0.31153,0.29223 0.57067,0.39699 0.14887,0.0551 0.58721,0.18196 1.31503,0.38045 1.05311,0.2812 1.78644,0.51278 2.19997,0.69472 0.41904,0.17645 0.74711,0.43559 0.9842,0.77744 0.23709,0.34185 0.35563,0.76641 0.35564,1.27367 -1e-5,0.49624 -0.14612,0.9649 -0.43834,1.406 -0.28672,0.43558 -0.70301,0.77468 -1.24886,1.01728 -0.54587,0.23709 -1.1634,0.35564 -1.85261,0.35564 -1.14135,0 -2.01251,-0.23709 -2.61351,-0.71127 -0.59548,-0.47418 -0.97593,-1.17718 -1.14134,-2.109"
         id="path2845" />
      <path
         d="m 385.86436,282.79448 v -1.71201 h 1.4887 v 1.71201 h -1.4887 m 0,10.41267 v -8.78336 h 1.4887 v 8.78336 h -1.4887"
         id="path2847" />
      <path
         d="m 389.62747,293.20715 v -8.78336 h 1.33157 v 1.23232 c 0.27568,-0.43006 0.64234,-0.77467 1.09998,-1.03383 0.45764,-0.26465 0.97869,-0.39698 1.56315,-0.39698 0.65061,0 1.18268,0.13509 1.59622,0.40525 0.41903,0.27019 0.71402,0.64788 0.88495,1.13308 0.69472,-1.02555 1.59897,-1.53833 2.71275,-1.53833 0.87116,0 1.54108,0.24261 2.00976,0.72781 0.46865,0.4797 0.70298,1.22129 0.703,2.22479 v 6.02925 h -1.48044 v -5.53302 c -10e-6,-0.59548 -0.0496,-1.02279 -0.14887,-1.28194 -0.0937,-0.26465 -0.26743,-0.47693 -0.52105,-0.63684 -0.25364,-0.15989 -0.55138,-0.23983 -0.89322,-0.23984 -0.61755,10e-6 -1.13032,0.20677 -1.53833,0.62029 -0.40802,0.40802 -0.61203,1.06416 -0.61202,1.9684 v 5.10295 h -1.48871 v -5.7067 c 0,-0.66164 -0.12131,-1.15788 -0.3639,-1.48871 -0.24261,-0.33081 -0.6396,-0.49622 -1.19097,-0.49623 -0.41905,10e-6 -0.80776,0.11028 -1.16615,0.33082 -0.35288,0.22056 -0.60927,0.54311 -0.76917,0.96766 -0.1599,0.42456 -0.23985,1.03659 -0.23984,1.83607 v 4.55709 h -1.48871"
         id="path2849" />
      <path
         d="m 403.78672,296.57328 v -12.14949 h 1.35637 v 1.14134 c 0.3198,-0.4466 0.68094,-0.78018 1.08345,-1.00074 0.4025,-0.22605 0.89046,-0.33909 1.46389,-0.33909 0.74986,0 1.41151,0.19299 1.98494,0.57894 0.57342,0.38597 1.00625,0.93182 1.29849,1.63757 0.29222,0.70025 0.43833,1.46942 0.43834,2.3075 -10e-6,0.89874 -0.16267,1.70925 -0.48797,2.43155 -0.3198,0.71679 -0.78847,1.26816 -1.406,1.65412 -0.61203,0.38044 -1.25713,0.57067 -1.93531,0.57067 -0.49624,0 -0.94286,-0.10476 -1.33984,-0.31428 -0.39148,-0.20953 -0.71403,-0.47418 -0.96766,-0.79398 v 4.27589 h -1.4887 m 1.3481,-7.70818 c 0,1.13031 0.22882,1.96564 0.68646,2.50598 0.45764,0.54035 1.01177,0.81052 1.66239,0.81052 0.66164,0 1.2268,-0.27844 1.69547,-0.83533 0.47417,-0.5624 0.71126,-1.43081 0.71127,-2.60523 -10e-6,-1.11928 -0.23158,-1.95737 -0.69473,-2.51426 -0.45764,-0.55688 -1.00626,-0.83532 -1.64585,-0.83533 -0.63408,10e-6 -1.19648,0.29775 -1.6872,0.89322 -0.48521,0.58998 -0.72781,1.45012 -0.72781,2.58043"
         id="path2851" />
      <path
         d="m 413.1821,293.20715 v -12.12468 h 1.48871 v 12.12468 h -1.48871"
         id="path2853" />
      <path
         d="m 422.99929,290.37861 1.53833,0.19023 c -0.24261,0.89873 -0.69198,1.59622 -1.34811,2.09245 -0.65614,0.49624 -1.49422,0.74436 -2.51426,0.74436 -1.2847,0 -2.30474,-0.39423 -3.06011,-1.1827 -0.74987,-0.79397 -1.1248,-1.90499 -1.1248,-3.33304 0,-1.47768 0.38044,-2.62453 1.14134,-3.44057 0.76089,-0.81602 1.74785,-1.22404 2.96087,-1.22404 1.17442,0 2.1338,0.39975 2.87816,1.19923 0.74435,0.7995 1.11652,1.9243 1.11653,3.3744 -1e-5,0.0882 -0.003,0.22055 -0.008,0.39699 h -6.5503 c 0.0551,0.9649 0.32806,1.70374 0.81878,2.21652 0.49072,0.51277 1.10275,0.76916 1.83607,0.76916 0.54586,0 1.01177,-0.14336 1.39773,-0.43007 0.38596,-0.28671 0.69197,-0.74435 0.91804,-1.37292 m -4.88792,-2.40674 h 4.90446 c -0.0662,-0.73883 -0.25364,-1.29296 -0.5624,-1.66239 -0.47419,-0.57342 -1.08897,-0.86013 -1.84434,-0.86014 -0.68371,10e-6 -1.25989,0.22883 -1.72855,0.68646 -0.46316,0.45765 -0.71955,1.06967 -0.76917,1.83607"
         id="path2855" />
      <path
         d="m 426.80376,293.20715 v -1.69547 h 1.69547 v 1.69547 c -1e-5,0.62305 -0.11028,1.1248 -0.33083,1.50525 -0.22055,0.38596 -0.57067,0.6837 -1.05036,0.89322 l -0.41353,-0.63683 c 0.31428,-0.13785 0.54586,-0.34185 0.69473,-0.61203 0.14887,-0.26465 0.23157,-0.64786 0.24812,-1.14961 h -0.8436"
         id="path2857" />
      <path
         d="m 435.77734,293.20715 v -12.12468 h 1.48871 v 12.12468 h -1.48871"
         id="path2859" />
      <path
         d="m 439.59009,282.79448 v -1.71201 h 1.4887 v 1.71201 h -1.4887 m 0,10.41267 v -8.78336 h 1.4887 v 8.78336 h -1.4887"
         id="path2861" />
      <path
         d="m 443.08027,293.93496 1.44736,0.21504 c 0.0606,0.44661 0.22881,0.77192 0.5045,0.97593 0.36942,0.27568 0.87392,0.41353 1.51352,0.41353 0.68921,0 1.22128,-0.13785 1.59622,-0.41353 0.37493,-0.27569 0.62856,-0.66165 0.7609,-1.15788 0.0772,-0.30326 0.11302,-0.94009 0.10751,-1.91051 -0.65062,0.76641 -1.46114,1.14961 -2.43155,1.14961 -1.20751,0 -2.14208,-0.43558 -2.80373,-1.30675 -0.66165,-0.87117 -0.99247,-1.91602 -0.99247,-3.13455 0,-0.83808 0.15163,-1.61 0.45488,-2.31577 0.30326,-0.71126 0.7416,-1.25987 1.31503,-1.64584 0.57894,-0.38595 1.25712,-0.57894 2.03456,-0.57894 1.03658,0 1.8912,0.41905 2.56388,1.25713 v -1.05864 h 1.37292 v 7.5924 c -10e-6,1.3674 -0.14061,2.33506 -0.4218,2.90297 -0.27569,0.57343 -0.71679,1.02555 -1.32329,1.35638 -0.601,0.33082 -1.3426,0.49623 -2.22479,0.49624 -1.04761,-10e-6 -1.89397,-0.2371 -2.53907,-0.71127 -0.64511,-0.46867 -0.95663,-1.17719 -0.93458,-2.12555 m 1.23232,-5.27663 c 0,1.15237 0.22882,1.99321 0.68646,2.52253 0.45764,0.52932 1.03106,0.79398 1.72028,0.79398 0.6837,0 1.25713,-0.2619 1.72028,-0.78571 0.46315,-0.52931 0.69473,-1.35637 0.69473,-2.48118 0,-1.07517 -0.23985,-1.88568 -0.71954,-2.43155 -0.47418,-0.54585 -1.04761,-0.81878 -1.72028,-0.81879 -0.66165,1e-5 -1.22405,0.27018 -1.6872,0.81052 -0.46315,0.53484 -0.69473,1.33157 -0.69473,2.3902"
         id="path2863" />
      <path
         d="m 452.78167,293.20715 v -12.12468 h 1.48871 v 4.35033 c 0.69472,-0.80499 1.5714,-1.2075 2.63004,-1.2075 0.65062,0 1.21577,0.12958 1.69547,0.38871 0.47969,0.25364 0.82154,0.60652 1.02555,1.05864 0.20952,0.45213 0.31428,1.10826 0.31429,1.9684 v 5.5661 h -1.48871 v -5.5661 c -1e-5,-0.74435 -0.16266,-1.28469 -0.48796,-1.62104 -0.3198,-0.34184 -0.77469,-0.51277 -1.36465,-0.51277 -0.4411,0 -0.85739,0.11579 -1.24886,0.34736 -0.38596,0.22607 -0.66165,0.53484 -0.82706,0.92631 -0.16541,0.39148 -0.24812,0.93182 -0.24811,1.62103 v 4.80521 h -1.48871"
         id="path2865" />
      <path
         d="m 465.46048,291.87559 0.21504,1.31502 c -0.41905,0.0882 -0.79398,0.13233 -1.1248,0.13233 -0.54035,0 -0.95939,-0.0855 -1.25713,-0.25639 -0.29774,-0.17092 -0.50726,-0.39423 -0.62856,-0.66991 -0.12131,-0.2812 -0.18196,-0.86841 -0.18196,-1.76164 v -5.05333 h -1.09171 v -1.15788 h 1.09171 v -2.17516 l 1.48044,-0.89323 v 3.06839 h 1.49697 v 1.15788 h -1.49697 v 5.13604 c 0,0.42456 0.0248,0.69748 0.0744,0.81878 0.0551,0.12131 0.1406,0.2178 0.25639,0.28948 0.1213,0.0717 0.29223,0.10751 0.51278,0.10751 0.16541,0 0.3832,-0.0193 0.65337,-0.0579"
         id="path2867" />
      <path
         d="m 468.52887,293.20715 -2.68794,-8.78336 h 1.53833 l 1.39773,5.06987 0.52105,1.88569 c 0.022,-0.0937 0.17368,-0.69748 0.45488,-1.81125 l 1.39773,-5.14431 h 1.53006 l 1.31502,5.09468 0.43834,1.67893 0.50451,-1.69547 1.50524,-5.07814 h 1.44736 l -2.74584,8.78336 h -1.5466 l -1.39773,-5.26009 -0.33909,-1.49698 -1.77818,6.75707 h -1.55487"
         id="path2869" />
      <path
         d="m 485.1941,290.37861 1.53833,0.19023 c -0.24262,0.89873 -0.69198,1.59622 -1.34811,2.09245 -0.65614,0.49624 -1.49422,0.74436 -2.51426,0.74436 -1.2847,0 -2.30474,-0.39423 -3.06011,-1.1827 -0.74987,-0.79397 -1.1248,-1.90499 -1.1248,-3.33304 0,-1.47768 0.38044,-2.62453 1.14134,-3.44057 0.76089,-0.81602 1.74784,-1.22404 2.96087,-1.22404 1.17441,0 2.1338,0.39975 2.87816,1.19923 0.74435,0.7995 1.11652,1.9243 1.11653,3.3744 -1e-5,0.0882 -0.003,0.22055 -0.008,0.39699 h -6.5503 c 0.0551,0.9649 0.32806,1.70374 0.81878,2.21652 0.49072,0.51277 1.10274,0.76916 1.83607,0.76916 0.54586,0 1.01177,-0.14336 1.39773,-0.43007 0.38596,-0.28671 0.69197,-0.74435 0.91804,-1.37292 m -4.88792,-2.40674 h 4.90446 c -0.0662,-0.73883 -0.25364,-1.29296 -0.5624,-1.66239 -0.47419,-0.57342 -1.08897,-0.86013 -1.84434,-0.86014 -0.68371,10e-6 -1.25989,0.22883 -1.72855,0.68646 -0.46316,0.45765 -0.71955,1.06967 -0.76917,1.83607"
         id="path2871" />
      <path
         d="m 488.61813,282.79448 v -1.71201 h 1.4887 v 1.71201 h -1.4887 m 0,10.41267 v -8.78336 h 1.4887 v 8.78336 h -1.4887"
         id="path2873" />
      <path
         d="m 492.10831,293.93496 1.44735,0.21504 c 0.0607,0.44661 0.22882,0.77192 0.50451,0.97593 0.36942,0.27568 0.87392,0.41353 1.51352,0.41353 0.68921,0 1.22128,-0.13785 1.59622,-0.41353 0.37493,-0.27569 0.62856,-0.66165 0.76089,-1.15788 0.0772,-0.30326 0.11303,-0.94009 0.10752,-1.91051 -0.65062,0.76641 -1.46114,1.14961 -2.43155,1.14961 -1.20751,0 -2.14208,-0.43558 -2.80373,-1.30675 -0.66165,-0.87117 -0.99247,-1.91602 -0.99247,-3.13455 0,-0.83808 0.15163,-1.61 0.45488,-2.31577 0.30326,-0.71126 0.7416,-1.25987 1.31503,-1.64584 0.57893,-0.38595 1.25712,-0.57894 2.03456,-0.57894 1.03658,0 1.8912,0.41905 2.56388,1.25713 v -1.05864 h 1.37292 v 7.5924 c -1e-5,1.3674 -0.14061,2.33506 -0.4218,2.90297 -0.27569,0.57343 -0.71679,1.02555 -1.32329,1.35638 -0.60101,0.33082 -1.3426,0.49623 -2.22479,0.49624 -1.04761,-10e-6 -1.89397,-0.2371 -2.53907,-0.71127 -0.64511,-0.46867 -0.95663,-1.17719 -0.93458,-2.12555 m 1.23232,-5.27663 c 0,1.15237 0.22882,1.99321 0.68646,2.52253 0.45763,0.52932 1.03106,0.79398 1.72028,0.79398 0.6837,0 1.25712,-0.2619 1.72028,-0.78571 0.46315,-0.52931 0.69472,-1.35637 0.69473,-2.48118 -10e-6,-1.07517 -0.23985,-1.88568 -0.71954,-2.43155 -0.47419,-0.54585 -1.04761,-0.81878 -1.72028,-0.81879 -0.66165,1e-5 -1.22405,0.27018 -1.6872,0.81052 -0.46316,0.53484 -0.69473,1.33157 -0.69473,2.3902"
         id="path2875" />
      <path
         d="m 501.80971,293.20715 v -12.12468 h 1.4887 v 4.35033 c 0.69473,-0.80499 1.57141,-1.2075 2.63005,-1.2075 0.65061,0 1.21577,0.12958 1.69547,0.38871 0.47969,0.25364 0.82154,0.60652 1.02555,1.05864 0.20952,0.45213 0.31428,1.10826 0.31429,1.9684 v 5.5661 h -1.48871 v -5.5661 c -10e-6,-0.74435 -0.16266,-1.28469 -0.48796,-1.62104 -0.31981,-0.34184 -0.77469,-0.51277 -1.36465,-0.51277 -0.4411,0 -0.85739,0.11579 -1.24886,0.34736 -0.38596,0.22607 -0.66165,0.53484 -0.82706,0.92631 -0.16541,0.39148 -0.24812,0.93182 -0.24812,1.62103 v 4.80521 h -1.4887"
         id="path2877" />
      <path
         d="m 514.48852,291.87559 0.21503,1.31502 c -0.41905,0.0882 -0.79398,0.13233 -1.1248,0.13233 -0.54035,0 -0.95939,-0.0855 -1.25713,-0.25639 -0.29774,-0.17092 -0.50726,-0.39423 -0.62856,-0.66991 -0.12131,-0.2812 -0.18196,-0.86841 -0.18196,-1.76164 v -5.05333 h -1.09171 v -1.15788 h 1.09171 v -2.17516 l 1.48044,-0.89323 v 3.06839 h 1.49698 v 1.15788 h -1.49698 v 5.13604 c 0,0.42456 0.0248,0.69748 0.0744,0.81878 0.0551,0.12131 0.1406,0.2178 0.25639,0.28948 0.1213,0.0717 0.29223,0.10751 0.51278,0.10751 0.16541,0 0.3832,-0.0193 0.65338,-0.0579"
         id="path2879" />
      <path
         d="m 520.36063,293.93496 1.44735,0.21504 c 0.0607,0.44661 0.22882,0.77192 0.50451,0.97593 0.36942,0.27568 0.87392,0.41353 1.51352,0.41353 0.68921,0 1.22128,-0.13785 1.59622,-0.41353 0.37493,-0.27569 0.62856,-0.66165 0.76089,-1.15788 0.0772,-0.30326 0.11303,-0.94009 0.10752,-1.91051 -0.65062,0.76641 -1.46114,1.14961 -2.43155,1.14961 -1.20751,0 -2.14209,-0.43558 -2.80373,-1.30675 -0.66165,-0.87117 -0.99247,-1.91602 -0.99247,-3.13455 0,-0.83808 0.15163,-1.61 0.45488,-2.31577 0.30326,-0.71126 0.7416,-1.25987 1.31503,-1.64584 0.57893,-0.38595 1.25712,-0.57894 2.03456,-0.57894 1.03657,0 1.8912,0.41905 2.56388,1.25713 v -1.05864 h 1.37292 v 7.5924 c -10e-6,1.3674 -0.14061,2.33506 -0.4218,2.90297 -0.27569,0.57343 -0.71679,1.02555 -1.32329,1.35638 -0.60101,0.33082 -1.3426,0.49623 -2.22479,0.49624 -1.04761,-10e-6 -1.89397,-0.2371 -2.53907,-0.71127 -0.64511,-0.46867 -0.95663,-1.17719 -0.93458,-2.12555 m 1.23232,-5.27663 c 0,1.15237 0.22882,1.99321 0.68646,2.52253 0.45763,0.52932 1.03106,0.79398 1.72028,0.79398 0.6837,0 1.25712,-0.2619 1.72028,-0.78571 0.46315,-0.52931 0.69472,-1.35637 0.69473,-2.48118 -1e-5,-1.07517 -0.23985,-1.88568 -0.71954,-2.43155 -0.47419,-0.54585 -1.04761,-0.81878 -1.72028,-0.81879 -0.66165,1e-5 -1.22405,0.27018 -1.6872,0.81052 -0.46316,0.53484 -0.69473,1.33157 -0.69473,2.3902"
         id="path2881" />
      <path
         d="m 530.06203,293.20715 v -8.78336 h 1.33983 v 1.24886 c 0.6451,-0.96489 1.57692,-1.44735 2.79546,-1.44735 0.52931,0 1.01452,0.0965 1.45562,0.28947 0.44661,0.18747 0.78019,0.43559 1.00074,0.74435 0.22055,0.30878 0.37493,0.67544 0.46316,1.09999 0.0551,0.27569 0.0827,0.75814 0.0827,1.44735 v 5.40069 h -1.4887 v -5.3428 c -10e-6,-0.6065 -0.0579,-1.05862 -0.17368,-1.35637 -0.1158,-0.30325 -0.32256,-0.5431 -0.6203,-0.71954 -0.29223,-0.18195 -0.63684,-0.27292 -1.03382,-0.27293 -0.63408,10e-6 -1.1827,0.20126 -1.64585,0.60375 -0.45764,0.40251 -0.68646,1.16616 -0.68646,2.29095 v 4.79694 h -1.4887"
         id="path2883" />
      <path
         d="m 545.24684,293.20715 v -1.29021 c -0.68371,0.99247 -1.61277,1.48871 -2.78719,1.48871 -0.51829,0 -1.0035,-0.0992 -1.45562,-0.29774 -0.44662,-0.1985 -0.7802,-0.44661 -1.00074,-0.74436 -0.21504,-0.30325 -0.36667,-0.67267 -0.45489,-1.10826 -0.0607,-0.29222 -0.091,-0.75537 -0.091,-1.38945 v -5.44205 h 1.4887 v 4.87138 c 0,0.77743 0.0303,1.30124 0.091,1.57141 0.0937,0.39147 0.29222,0.70024 0.59548,0.9263 0.30325,0.22055 0.67819,0.33083 1.1248,0.33083 0.44661,0 0.86565,-0.11303 1.25713,-0.3391 0.39147,-0.23157 0.66715,-0.5431 0.82706,-0.93457 0.1654,-0.39699 0.24811,-0.97042 0.24812,-1.72029 v -4.70596 h 1.4887 v 8.78336 h -1.33156"
         id="path2885" />
      <path
         d="m 547.80245,293.41392 3.515,-12.53821 h 1.19096 l -3.50673,12.53821 h -1.19923"
         id="path2887" />
      <path
         d="m 553.58359,293.20715 v -12.12468 h 1.4887 v 12.12468 h -1.4887"
         id="path2889" />
      <path
         d="m 557.39632,282.79448 v -1.71201 h 1.4887 v 1.71201 h -1.4887 m 0,10.41267 v -8.78336 h 1.4887 v 8.78336 h -1.4887"
         id="path2891" />
      <path
         d="m 561.15944,293.20715 v -8.78336 h 1.33983 v 1.24886 c 0.64511,-0.96489 1.57693,-1.44735 2.79546,-1.44735 0.52931,0 1.01452,0.0965 1.45563,0.28947 0.4466,0.18747 0.78018,0.43559 1.00074,0.74435 0.22054,0.30878 0.37492,0.67544 0.46315,1.09999 0.0551,0.27569 0.0827,0.75814 0.0827,1.44735 v 5.40069 h -1.48871 v -5.3428 c -10e-6,-0.6065 -0.0579,-1.05862 -0.17368,-1.35637 -0.1158,-0.30325 -0.32256,-0.5431 -0.6203,-0.71954 -0.29223,-0.18195 -0.63684,-0.27292 -1.03382,-0.27293 -0.63408,10e-6 -1.1827,0.20126 -1.64585,0.60375 -0.45764,0.40251 -0.68646,1.16616 -0.68646,2.29095 v 4.79694 h -1.4887"
         id="path2893" />
      <path
         d="m 576.34423,293.20715 v -1.29021 c -0.6837,0.99247 -1.61277,1.48871 -2.78718,1.48871 -0.5183,0 -1.0035,-0.0992 -1.45563,-0.29774 -0.44661,-0.1985 -0.78019,-0.44661 -1.00074,-0.74436 -0.21503,-0.30325 -0.36666,-0.67267 -0.45488,-1.10826 -0.0607,-0.29222 -0.091,-0.75537 -0.091,-1.38945 v -5.44205 h 1.48871 v 4.87138 c 0,0.77743 0.0303,1.30124 0.091,1.57141 0.0937,0.39147 0.29222,0.70024 0.59548,0.9263 0.30325,0.22055 0.67818,0.33083 1.1248,0.33083 0.4466,0 0.86565,-0.11303 1.25713,-0.3391 0.39147,-0.23157 0.66715,-0.5431 0.82706,-0.93457 0.1654,-0.39699 0.24811,-0.97042 0.24811,-1.72029 v -4.70596 h 1.48871 v 8.78336 h -1.33157"
         id="path2895" />
      <path
         d="m 579.0239,293.20715 3.20899,-4.56536 -2.96914,-4.218 h 1.86088 l 1.34811,2.05938 c 0.25362,0.39148 0.45763,0.71954 0.61202,0.9842 0.2426,-0.3639 0.46591,-0.68646 0.66992,-0.96766 l 1.48043,-2.07592 h 1.77818 l -3.03531,4.13529 3.26689,4.64807 h -1.8278 l -1.80299,-2.72929 -0.4797,-0.73608 -2.30749,3.46537 h -1.80299"
         id="path2897" />
      <path
         d="m 598.74926,293.20715 v -1.10826 c -0.55689,0.87117 -1.37568,1.30676 -2.45636,1.30676 -0.70025,0 -1.34535,-0.19298 -1.93532,-0.57894 -0.58446,-0.38596 -1.03934,-0.92355 -1.36465,-1.61277 -0.31979,-0.69472 -0.47969,-1.49146 -0.47969,-2.3902 0,-0.87667 0.14611,-1.67065 0.43834,-2.38193 0.29223,-0.71677 0.73057,-1.26539 1.31502,-1.64584 0.58446,-0.38044 1.23783,-0.57067 1.96013,-0.57067 0.52932,0 1.00074,0.11304 1.41427,0.33909 0.41353,0.22056 0.74986,0.51003 1.00901,0.86841 v -4.35033 h 1.48044 v 12.12468 h -1.38119 m -4.70596,-4.38341 c 0,1.12481 0.23709,1.96565 0.71127,2.52253 0.47417,0.55689 1.03382,0.83533 1.67893,0.83533 0.65061,0 1.20198,-0.26466 1.65411,-0.79398 0.45764,-0.53482 0.68646,-1.3481 0.68646,-2.43982 0,-1.20199 -0.23158,-2.08418 -0.69473,-2.64659 -0.46315,-0.56239 -1.03382,-0.84359 -1.71201,-0.8436 -0.66165,1e-5 -1.21578,0.27018 -1.66239,0.81052 -0.4411,0.54035 -0.66164,1.39222 -0.66164,2.55561"
         id="path2899" />
      <path
         d="m 602.48756,282.79448 v -1.71201 h 1.48871 v 1.71201 h -1.48871 m 0,10.41267 v -8.78336 h 1.48871 v 8.78336 h -1.48871"
         id="path2901" />
      <path
         d="m 605.65519,290.58538 1.47216,-0.23158 c 0.0827,0.58997 0.31153,1.0421 0.68646,1.35638 0.38045,0.31428 0.90976,0.47142 1.58795,0.47142 0.6837,0 1.19096,-0.13784 1.52179,-0.41353 0.33082,-0.2812 0.49623,-0.60926 0.49624,-0.9842 -1e-5,-0.33633 -0.14612,-0.60099 -0.43834,-0.79397 -0.20402,-0.13233 -0.71128,-0.3005 -1.52179,-0.50451 -1.09172,-0.27568 -1.84986,-0.51277 -2.27441,-0.71127 -0.41905,-0.204 -0.73884,-0.48245 -0.95939,-0.83533 -0.21504,-0.35839 -0.32255,-0.75262 -0.32255,-1.18269 0,-0.39147 0.0882,-0.75262 0.26466,-1.08345 0.18195,-0.33633 0.42731,-0.61477 0.73608,-0.83533 0.23157,-0.17092 0.54585,-0.31427 0.94284,-0.43007 0.4025,-0.12129 0.83257,-0.18195 1.29022,-0.18195 0.68921,0 1.29296,0.0992 1.81125,0.29774 0.5238,0.1985 0.90976,0.46867 1.15789,0.81051 0.24811,0.33635 0.41903,0.78847 0.51277,1.35638 l -1.45562,0.19849 c -0.0662,-0.45211 -0.25915,-0.80499 -0.57894,-1.05863 -0.31429,-0.25362 -0.7609,-0.38044 -1.33984,-0.38045 -0.6837,10e-6 -1.17167,0.11304 -1.46389,0.3391 -0.29223,0.22607 -0.43834,0.49073 -0.43834,0.79397 0,0.19299 0.0607,0.36667 0.18195,0.52105 0.1213,0.1599 0.31152,0.29223 0.57067,0.39699 0.14887,0.0551 0.58721,0.18196 1.31503,0.38045 1.05311,0.2812 1.78644,0.51278 2.19997,0.69472 0.41904,0.17645 0.7471,0.43559 0.9842,0.77744 0.23708,0.34185 0.35563,0.76641 0.35564,1.27367 -10e-6,0.49624 -0.14612,0.9649 -0.43834,1.406 -0.28673,0.43558 -0.70301,0.77468 -1.24886,1.01728 -0.54587,0.23709 -1.1634,0.35564 -1.85261,0.35564 -1.14135,0 -2.01252,-0.23709 -2.61351,-0.71127 -0.59548,-0.47418 -0.97593,-1.17718 -1.14134,-2.109"
         id="path2903" />
      <path
         d="m 617.9701,291.87559 0.21503,1.31502 c -0.41904,0.0882 -0.79398,0.13233 -1.1248,0.13233 -0.54034,0 -0.95939,-0.0855 -1.25713,-0.25639 -0.29774,-0.17092 -0.50726,-0.39423 -0.62856,-0.66991 -0.1213,-0.2812 -0.18195,-0.86841 -0.18195,-1.76164 v -5.05333 h -1.09172 v -1.15788 h 1.09172 v -2.17516 l 1.48043,-0.89323 v 3.06839 h 1.49698 v 1.15788 h -1.49698 v 5.13604 c 0,0.42456 0.0248,0.69748 0.0744,0.81878 0.0551,0.12131 0.14059,0.2178 0.25638,0.28948 0.1213,0.0717 0.29223,0.10751 0.51278,0.10751 0.16541,0 0.3832,-0.0193 0.65338,-0.0579"
         id="path2905" />
      <path
         d="m 619.40091,293.20715 v -8.78336 h 1.33983 v 1.33156 c 0.34185,-0.62304 0.65613,-1.03381 0.94285,-1.23231 0.29222,-0.19849 0.61202,-0.29774 0.95939,-0.29774 0.50174,0 1.01176,0.1599 1.53006,0.47969 l -0.51278,1.38119 c -0.36391,-0.21503 -0.72782,-0.32255 -1.09172,-0.32255 -0.32531,0 -0.61754,0.0993 -0.87668,0.29774 -0.25915,0.19298 -0.44386,0.46316 -0.55413,0.81051 -0.16541,0.52933 -0.24812,1.10827 -0.24812,1.73683 v 4.59844 h -1.4887"
         id="path2907" />
      <path
         d="m 625.08279,282.79448 v -1.71201 h 1.48871 v 1.71201 h -1.48871 m 0,10.41267 v -8.78336 h 1.48871 v 8.78336 h -1.48871"
         id="path2909" />
      <path
         d="m 630.21883,293.20715 h -1.38118 v -12.12468 h 1.4887 v 4.32552 c 0.62856,-0.78845 1.43081,-1.18269 2.40674,-1.18269 0.54034,0 1.05036,0.11028 1.53006,0.33082 0.4852,0.21504 0.88219,0.52105 1.19097,0.91803 0.31427,0.39149 0.55963,0.86567 0.73608,1.42255 0.17643,0.55689 0.26465,1.15237 0.26466,1.78644 -1e-5,1.50525 -0.37219,2.66865 -1.11653,3.49019 -0.74436,0.82155 -1.63758,1.23232 -2.67967,1.23232 -1.03659,0 -1.84986,-0.43283 -2.43983,-1.29848 v 1.09998 m -0.0165,-4.45784 c 0,1.05312 0.14336,1.81402 0.43007,2.28268 0.46867,0.76641 1.10274,1.14961 1.90224,1.14961 0.65061,0 1.21301,-0.2812 1.6872,-0.8436 0.47417,-0.56791 0.71126,-1.41151 0.71127,-2.5308 -1e-5,-1.14685 -0.22883,-1.9932 -0.68646,-2.53907 -0.45213,-0.54585 -1.00075,-0.81878 -1.64585,-0.81879 -0.65062,10e-6 -1.21302,0.28397 -1.6872,0.85187 -0.47418,0.56241 -0.71127,1.37844 -0.71127,2.4481"
         id="path2911" />
      <path
         d="m 644.03071,293.20715 v -1.29021 c -0.68371,0.99247 -1.61277,1.48871 -2.78719,1.48871 -0.51829,0 -1.0035,-0.0992 -1.45562,-0.29774 -0.44661,-0.1985 -0.78019,-0.44661 -1.00074,-0.74436 -0.21504,-0.30325 -0.36666,-0.67267 -0.45488,-1.10826 -0.0607,-0.29222 -0.091,-0.75537 -0.091,-1.38945 v -5.44205 h 1.48871 v 4.87138 c -1e-5,0.77743 0.0303,1.30124 0.091,1.57141 0.0937,0.39147 0.29223,0.70024 0.59549,0.9263 0.30325,0.22055 0.67818,0.33083 1.1248,0.33083 0.4466,0 0.86564,-0.11303 1.25712,-0.3391 0.39147,-0.23157 0.66716,-0.5431 0.82706,-0.93457 0.16541,-0.39699 0.24811,-0.97042 0.24812,-1.72029 v -4.70596 h 1.48871 v 8.78336 h -1.33157"
         id="path2913" />
      <path
         d="m 650.95319,291.87559 0.21504,1.31502 c -0.41905,0.0882 -0.79398,0.13233 -1.1248,0.13233 -0.54035,0 -0.95939,-0.0855 -1.25713,-0.25639 -0.29775,-0.17092 -0.50727,-0.39423 -0.62857,-0.66991 -0.1213,-0.2812 -0.18195,-0.86841 -0.18195,-1.76164 v -5.05333 h -1.09172 v -1.15788 h 1.09172 v -2.17516 l 1.48043,-0.89323 v 3.06839 h 1.49698 v 1.15788 h -1.49698 v 5.13604 c 0,0.42456 0.0248,0.69748 0.0744,0.81878 0.0551,0.12131 0.1406,0.2178 0.25639,0.28948 0.1213,0.0717 0.29222,0.10751 0.51277,0.10751 0.16541,0 0.3832,-0.0193 0.65338,-0.0579"
         id="path2915" />
      <path
         d="m 652.40881,282.79448 v -1.71201 h 1.48871 v 1.71201 h -1.48871 m 0,10.41267 v -8.78336 h 1.48871 v 8.78336 h -1.48871"
         id="path2917" />
      <path
         d="m 655.61781,288.81547 c 0,-1.62654 0.45212,-2.83129 1.35637,-3.61424 0.75538,-0.65062 1.67617,-0.97593 2.76238,-0.97593 1.2075,0 2.19445,0.39699 2.96087,1.19096 0.7664,0.78847 1.1496,1.88019 1.14961,3.27515 -10e-6,1.13032 -0.17093,2.02079 -0.51278,2.6714 -0.33634,0.64511 -0.82982,1.14686 -1.48043,1.50525 -0.64511,0.35839 -1.35087,0.53759 -2.11727,0.53759 -1.22957,0 -2.22479,-0.39423 -2.98568,-1.1827 -0.75538,-0.78846 -1.13307,-1.92428 -1.13307,-3.40748 m 1.53006,0 c -10e-6,1.1248 0.24535,1.9684 0.73608,2.5308 0.49072,0.55689 1.10825,0.83533 1.85261,0.83533 0.73883,0 1.35361,-0.2812 1.84434,-0.8436 0.49071,-0.5624 0.73607,-1.41978 0.73608,-2.57215 -10e-6,-1.0862 -0.24812,-1.90774 -0.74435,-2.46464 -0.49073,-0.56239 -1.10275,-0.84359 -1.83607,-0.8436 -0.74436,1e-5 -1.36189,0.27845 -1.85261,0.83533 -0.49073,0.5569 -0.73609,1.39774 -0.73608,2.52253"
         id="path2919" />
      <path
         d="m 665.6004,293.20715 v -8.78336 h 1.33984 v 1.24886 c 0.6451,-0.96489 1.57692,-1.44735 2.79546,-1.44735 0.52931,0 1.01452,0.0965 1.45562,0.28947 0.4466,0.18747 0.78018,0.43559 1.00074,0.74435 0.22054,0.30878 0.37493,0.67544 0.46315,1.09999 0.0551,0.27569 0.0827,0.75814 0.0827,1.44735 v 5.40069 h -1.48871 v -5.3428 c 0,-0.6065 -0.0579,-1.05862 -0.17368,-1.35637 -0.11579,-0.30325 -0.32256,-0.5431 -0.62029,-0.71954 -0.29224,-0.18195 -0.63684,-0.27292 -1.03383,-0.27293 -0.63408,10e-6 -1.18269,0.20126 -1.64584,0.60375 -0.45764,0.40251 -0.68646,1.16616 -0.68646,2.29095 v 4.79694 h -1.48871"
         id="path2921" />
      <path
         d="m 675.45067,293.20715 v -1.69547 h 1.69547 v 1.69547 h -1.69547"
         id="path2923" />
    </g>
    <path
       style="fill:#1793d1;fill-opacity:1;fill-rule:evenodd;stroke:none;stroke-width:1;stroke-linecap:round;stroke-linejoin:round;stroke-miterlimit:10;stroke-dasharray:none;stroke-opacity:1"
       d="m 105.8125,16.625 c -7.39687,18.135158 -11.858304,29.997682 -20.09375,47.59375 5.04936,5.35232 11.247211,11.585364 21.3125,18.625 C 96.210077,78.390904 88.828713,73.920352 83.3125,69.28125 72.7727,91.274163 56.259864,122.60209 22.75,182.8125 49.087628,167.60733 69.504089,158.23318 88.53125,154.65625 87.714216,151.1422 87.2497,147.34107 87.28125,143.375 l 0.03125,-0.84375 c 0.417917,-16.87382 9.195665,-29.84979 19.59375,-28.96875 10.39809,0.88104 18.48041,15.28242 18.0625,32.15625 -0.0786,3.17512 -0.43674,6.22955 -1.0625,9.0625 18.82058,3.68164 39.01873,13.03179 65,28.03125 -5.123,-9.4318 -9.69572,-17.93388 -14.0625,-26.03125 -6.87839,-5.33121 -14.05289,-12.2698 -28.6875,-19.78125 10.05899,2.61375 17.2611,5.62932 22.875,9 C 124.63297,63.338161 121.03766,52.354109 105.8125,16.625 Z"
       transform="matrix(1.1433333,0,0,1.1433333,22.920168,121.64318)"
       id="path2518" />
    <text
       id="text2634"
       y="263.83624"
       x="683.27826"
       style="font-style:normal;font-weight:normal;line-height:0%;font-family:'DejaVu Sans Mono';fill:#87cdde;fill-opacity:1;stroke:none;stroke-width:1px;stroke-linecap:butt;stroke-linejoin:miter;stroke-opacity:1"
       xml:space="preserve"><tspan
         y="263.83624"
         x="683.27826"
         id="tspan2636"
         sodipodi:role="line"
         style="font-size:8.44138px;line-height:1.25">TM</tspan></text>
    <text
       id="text2638"
       y="313.69965"
       x="237.70116"
       style="font-style:normal;font-weight:normal;line-height:0%;font-family:'DejaVu Sans Mono';fill:#87cdde;fill-opacity:1;stroke:none;stroke-width:1px;stroke-linecap:butt;stroke-linejoin:miter;stroke-opacity:1"
       xml:space="preserve"><tspan
         y="313.69965"
         x="237.70116"
         id="tspan2640"
         sodipodi:role="line"
         style="font-size:8.2513px;line-height:1.25">TM</tspan></text>
  </g>
</svg>
